<svg xmlns="http://www.w3.org/2000/svg" x="0px" y="0px"
width="100" height="100"
viewBox="0,0,256,256">
<g fill="#1c1c1a" fill-rule="nonzero" stroke="none" stroke-width="1" stroke-linecap="butt" stroke-linejoin="miter" stroke-miterlimit="10" stroke-dasharray="" stroke-dashoffset="0" font-family="none" font-weight="none" font-size="none" text-anchor="none" style="mix-blend-mode: normal"><g transform="scale(8,8)"><path d="M21,13c0.55228,0 1,-0.44772 1,-1v-0.8262c-0.00593,-2.78487 -2.21663,-5.06463 -5,-5.1562v-2.0176c0,-0.55228 -0.44772,-1 -1,-1c-0.55228,0 -1,0.44772 -1,1v2.0176c-2.44491,0.0779 -4.49985,1.86025 -4.9226,4.26959c-0.42275,2.40934 0.90266,4.78481 3.175,5.69041l4.7525,1.9019c1.41246,0.56512 2.22526,2.05302 1.93757,3.54689c-0.28769,1.49387 -1.59495,2.57348 -3.11627,2.57361h-1.6524c-1.75202,-0.00198 -3.17182,-1.42178 -3.1738,-3.1738v-0.8262c0,-0.55228 -0.44772,-1 -1,-1c-0.55228,0 -1,0.44772 -1,1v0.8262c0.00593,2.78487 2.21663,5.06463 5,5.1562v2.0176c0,0.55228 0.44772,1 1,1c0.55228,0 1,-0.44772 1,-1v-2.0176c2.44491,-0.0779 4.49985,-1.86025 4.9226,-4.26959c0.42275,-2.40934 -0.90266,-4.78481 -3.175,-5.69041l-4.7525,-1.9019c-1.41246,-0.56512 -2.22526,-2.05302 -1.93757,-3.54689c0.28769,-1.49387 1.59495,-2.57348 3.11627,-2.57361h1.6524c1.75202,0.00198 3.17182,1.42178 3.1738,3.1738v0.8262c0,0.55228 0.44772,1 1,1z"></path></g></g>
</svg>