<svg xmlns="http://www.w3.org/2000/svg" x="0px" y="0px"
width="100" height="100"
viewBox="0,0,256,256">
<g fill="#fa5252" fill-rule="nonzero" stroke="none" stroke-width="1" stroke-linecap="butt" stroke-linejoin="miter" stroke-miterlimit="10" stroke-dasharray="" stroke-dashoffset="0" font-family="none" font-weight="none" font-size="none" text-anchor="none" style="mix-blend-mode: normal"><g transform="scale(5.12,5.12)"><path d="M13.9375,12c-5.44922,0 -9.90625,4.42578 -9.90625,9.875v2.28125c-2.28906,0.57813 -4,2.66797 -4,5.125c0,2.21484 1.42969,4.03906 3.375,4.8125l2.4375,6.34375l0.03125,0.09375h0.03125c0.24219,0.75 0.66016,1.34375 1.15625,1.8125l-1.75,3.53125c-0.69922,1.39453 -0.14453,3.11328 1.25,3.8125c0.40234,0.20313 0.85156,0.3125 1.28125,0.3125c1.04297,0 2.06641,-0.57422 2.5625,-1.5625l2.1875,-4.4375h24.8125l2.1875,4.4375c0.49609,0.98828 1.51953,1.5625 2.5625,1.5625c0.42969,0 0.87891,-0.10937 1.28125,-0.3125c1.39453,-0.69922 1.94922,-2.41797 1.25,-3.8125l-1.75,-3.53125c0.49609,-0.46875 0.91406,-1.0625 1.15625,-1.8125h0.03125l0.03125,-0.09375l2.4375,-6.34375c1.94531,-0.77344 3.375,-2.59766 3.375,-4.8125c0,-2.45703 -1.71094,-4.54687 -4,-5.125v-2.28125c0,-5.44922 -4.45703,-9.875 -9.90625,-9.875zM13.9375,14h22.125c4.36719,0 7.90625,3.50781 7.90625,7.875v2.1875c-1.90625,0.26953 -3.47656,1.56641 -4.15625,3.3125h-0.03125l-1.625,3.71875c-0.13281,-0.04297 -0.21094,-0.07422 -0.375,-0.125c-0.75391,-0.22656 -1.82031,-0.52344 -3.09375,-0.8125c-2.55078,-0.57812 -5.96484,-1.15625 -9.5625,-1.15625c-3.59766,0 -7.07812,0.57422 -9.6875,1.15625c-1.30469,0.28906 -2.41016,0.58203 -3.1875,0.8125c-0.17578,0.05078 -0.26562,0.08203 -0.40625,0.125l-1.53125,-3.4375h-0.03125c-0.60937,-1.88672 -2.24609,-3.30859 -4.25,-3.59375v-2.1875c0,-4.36719 3.53906,-7.875 7.90625,-7.875zM5.3125,26c1.48828,0 2.72656,0.98438 3.125,2.34375v0.0625l0.03125,0.0625l1.9375,4.28125l0.46875,1.03125l0.84375,-0.53125l0.09375,-0.0625c0.01563,-0.01172 0,0.01953 0.03125,0c0.03906,-0.01562 0.07031,-0.01172 0.125,-0.03125c0.19922,-0.06641 0.47656,-0.17187 0.84375,-0.28125c0.73828,-0.21484 1.80469,-0.5 3.0625,-0.78125c2.51172,-0.55859 5.86719,-1.09375 9.25,-1.09375c3.38281,0 6.67578,0.53906 9.125,1.09375c1.22266,0.27734 2.22656,0.56641 2.9375,0.78125c0.35547,0.10938 0.65234,0.18359 0.84375,0.25c0.09375,0.03125 0.14453,0.07813 0.1875,0.09375h0.03125l0.875,0.53125l0.46875,-1.03125l2.03125,-4.53125v-0.03125l0.03125,-0.03125c0.46484,-1.24219 1.62109,-2.125 3.03125,-2.125c1.81641,0 3.28125,1.46484 3.28125,3.28125c0,1.50781 -1.02344,2.74219 -2.40625,3.125l-0.5,0.125l-0.15625,0.46875l-2.65625,6.8125v0.03125l-0.03125,0.03125c-0.29297,1.01953 -1.15625,1.54688 -2.125,1.84375c-0.83203,0.25781 -1.49219,0.28125 -1.6875,0.28125c-0.25781,-0.11328 -0.55469,-0.11328 -0.8125,0h-25.21875c-0.24219,-0.09766 -0.50781,-0.09766 -0.75,0c-0.16406,0 -0.85937,-0.01562 -1.71875,-0.28125c-0.96875,-0.29687 -1.83203,-0.82422 -2.125,-1.84375l-0.03125,-0.03125v-0.0625l-2.65625,-6.78125l-0.15625,-0.46875l-0.5,-0.125c-1.38672,-0.38281 -2.40625,-1.61719 -2.40625,-3.125c0,-1.81641 1.46484,-3.28125 3.28125,-3.28125zM8.78125,43.40625c0.17578,0.07031 0.36328,0.16797 0.53125,0.21875c0.40234,0.125 0.77734,0.19531 1.125,0.25l-1.84375,3.65625c-0.15234,0.30469 -0.4375,0.46875 -0.75,0.46875c-0.125,0 -0.25,-0.03125 -0.375,-0.09375c-0.42969,-0.21484 -0.58984,-0.69531 -0.375,-1.125zM41.21875,43.40625l1.6875,3.375c0.21484,0.42969 0.05469,0.91016 -0.375,1.125c-0.125,0.0625 -0.25,0.09375 -0.375,0.09375c-0.3125,0 -0.59766,-0.16016 -0.75,-0.46875l-1.84375,-3.65625c0.34766,-0.05469 0.72266,-0.125 1.125,-0.25c0.16797,-0.05078 0.35547,-0.14844 0.53125,-0.21875z"></path></g></g>
</svg>