<svg xmlns="http://www.w3.org/2000/svg" x="0px" y="0px"
width="100" height="100"
viewBox="0,0,256,256">
<g fill="#504b4b" fill-rule="nonzero" stroke="none" stroke-width="1" stroke-linecap="butt" stroke-linejoin="miter" stroke-miterlimit="10" stroke-dasharray="" stroke-dashoffset="0" font-family="none" font-weight="none" font-size="none" text-anchor="none" style="mix-blend-mode: normal"><g transform="scale(4,4)"><path d="M3,10c-1.65234,0 -3,1.34766 -3,3v8.1875c0,1.44922 1.01953,2.6875 2.42188,2.9375c3.8125,0.6875 6.57813,3.99609 6.57813,7.875c0,3.87891 -2.76562,7.1875 -6.57812,7.875c-1.40234,0.25 -2.42187,1.48828 -2.42187,2.9375v8.1875c0,1.65234 1.34766,3 3,3h37.0625c2.3125,3.60156 6.34766,6 10.9375,6c7.16797,0 13,-5.83203 13,-13c0,-6.375 -4.61719,-11.67969 -10.67578,-12.78125c-0.20703,-0.70703 -0.32422,-1.44922 -0.32422,-2.21875c0,-3.87891 2.76563,-7.1875 6.57813,-7.875c1.40234,-0.25 2.42188,-1.48828 2.42188,-2.9375v-8.1875c0,-1.65234 -1.34766,-3 -3,-3zM3,12h11c0,0.55469 0.44922,1 1,1h2c0.55078,0 1,-0.44531 1,-1h41c0.55078,0 1,0.44922 1,1v8.1875c0,0.48047 -0.32812,0.89063 -0.77734,0.96875c-4.76562,0.85938 -8.22266,4.99609 -8.22266,9.84375c0,0.6875 0.08203,1.35938 0.21875,2.01172c-0.07422,0 -0.14453,-0.01172 -0.21875,-0.01172c-7.16797,0 -13,5.83203 -13,13c0,1.76953 0.35938,3.46094 1.00391,5h-21.00391c0,-0.55469 -0.44922,-1 -1,-1h-2c-0.55078,0 -1,0.44531 -1,1h-11c-0.55078,0 -1,-0.44922 -1,-1v-8.1875c0,-0.48047 0.32813,-0.89062 0.77734,-0.96875c4.76563,-0.85937 8.22266,-4.99609 8.22266,-9.84375c0,-4.84766 -3.45703,-8.98828 -8.22266,-9.84375c-0.44922,-0.08203 -0.77734,-0.48828 -0.77734,-0.96875v-8.1875c0,-0.55078 0.44922,-1 1,-1zM21,14c-0.55078,0 -1,0.44531 -1,1v34c0,0.55469 0.44922,1 1,1c0.55078,0 1,-0.44531 1,-1v-34c0,-0.55469 -0.44922,-1 -1,-1zM15,16c-0.55078,0 -1,0.44531 -1,1c0,0.55469 0.44922,1 1,1h2c0.55078,0 1,-0.44531 1,-1c0,-0.55469 -0.44922,-1 -1,-1zM15,21c-0.55078,0 -1,0.44531 -1,1c0,0.55469 0.44922,1 1,1h2c0.55078,0 1,-0.44531 1,-1c0,-0.55469 -0.44922,-1 -1,-1zM15,26c-0.55078,0 -1,0.44531 -1,1c0,0.55469 0.44922,1 1,1h2c0.55078,0 1,-0.44531 1,-1c0,-0.55469 -0.44922,-1 -1,-1zM15,31c-0.55078,0 -1,0.44531 -1,1c0,0.55469 0.44922,1 1,1h2c0.55078,0 1,-0.44531 1,-1c0,-0.55469 -0.44922,-1 -1,-1zM15,36c-0.55078,0 -1,0.44531 -1,1c0,0.55469 0.44922,1 1,1h2c0.55078,0 1,-0.44531 1,-1c0,-0.55469 -0.44922,-1 -1,-1zM51,36c6.06641,0 11,4.93359 11,11c0,6.06641 -4.93359,11 -11,11c-6.06641,0 -11,-4.93359 -11,-11c0,-6.06641 4.93359,-11 11,-11zM51,40c-0.55469,0 -1,0.44922 -1,1v5h-5c-0.55469,0 -1,0.44922 -1,1c0,0.55078 0.44531,1 1,1h5v5c0,0.55078 0.44531,1 1,1c0.55469,0 1,-0.44922 1,-1v-5h5c0.55469,0 1,-0.44922 1,-1c0,-0.55078 -0.44531,-1 -1,-1h-5v-5c0,-0.55078 -0.44531,-1 -1,-1zM15,41c-0.55078,0 -1,0.44531 -1,1c0,0.55469 0.44922,1 1,1h2c0.55078,0 1,-0.44531 1,-1c0,-0.55469 -0.44922,-1 -1,-1zM15,46c-0.55078,0 -1,0.44531 -1,1c0,0.55469 0.44922,1 1,1h2c0.55078,0 1,-0.44531 1,-1c0,-0.55469 -0.44922,-1 -1,-1z"></path></g></g>
</svg>