<svg xmlns="http://www.w3.org/2000/svg" x="0px" y="0px"
width="100" height="100"
viewBox="0 0 80 80">
<path d="M 9 16 C 6.794 16 5 17.794 5 20 L 5 34 L 6 34 C 9.309 34 12 36.691 12 40 C 12 43.309 9.309 46 6 46 L 5 46 L 5 60 C 5 62.206 6.794 64 9 64 L 45 64 C 45 63.323 45.044187 62.658 45.117188 62 L 26 62 C 26 61.448 25.552 61 25 61 C 24.448 61 24 61.448 24 62 L 9 62 C 7.897 62 7 61.103 7 60 L 7 47.9375 C 10.941 47.4445 14 44.073 14 40 C 14 35.927 10.941 32.5565 7 32.0625 L 7 20 C 7 18.897 7.897 18 9 18 L 24 18 C 24 18.552 24.448 19 25 19 C 25.552 19 26 18.552 26 18 L 71 18 C 72.103 18 73 18.897 73 20 L 73 32.0625 C 69.059 32.5555 66 35.927 66 40 C 66 44.073 69.059 47.4435 73 47.9375 L 75 47.9375 L 75 46 L 74 46 C 70.691 46 68 43.309 68 40 C 68 36.691 70.691 34 74 34 L 75 34 L 75 20 C 75 17.794 73.206 16 71 16 L 9 16 z M 25 21 C 24.448 21 24 21.448 24 22 C 24 22.552 24.448 23 25 23 C 25.552 23 26 22.552 26 22 C 26 21.448 25.552 21 25 21 z M 25 25 C 24.448 25 24 25.448 24 26 C 24 26.552 24.448 27 25 27 C 25.552 27 26 26.552 26 26 C 26 25.448 25.552 25 25 25 z M 25 29 C 24.448 29 24 29.448 24 30 C 24 30.552 24.448 31 25 31 C 25.552 31 26 30.552 26 30 C 26 29.448 25.552 29 25 29 z M 25 33 C 24.448 33 24 33.448 24 34 C 24 34.552 24.448 35 25 35 C 25.552 35 26 34.552 26 34 C 26 33.448 25.552 33 25 33 z M 25 37 C 24.448 37 24 37.448 24 38 C 24 38.552 24.448 39 25 39 C 25.552 39 26 38.552 26 38 C 26 37.448 25.552 37 25 37 z M 25 41 C 24.448 41 24 41.448 24 42 C 24 42.552 24.448 43 25 43 C 25.552 43 26 42.552 26 42 C 26 41.448 25.552 41 25 41 z M 25 45 C 24.448 45 24 45.448 24 46 C 24 46.552 24.448 47 25 47 C 25.552 47 26 46.552 26 46 C 26 45.448 25.552 45 25 45 z M 64 48 C 55.17552 48 48 55.17552 48 64 C 48 72.82448 55.17552 80 64 80 C 72.82448 80 80 72.82448 80 64 C 80 55.17552 72.82448 48 64 48 z M 25 49 C 24.448 49 24 49.448 24 50 C 24 50.552 24.448 51 25 51 C 25.552 51 26 50.552 26 50 C 26 49.448 25.552 49 25 49 z M 64 50 C 71.74352 50 78 56.25648 78 64 C 78 71.74352 71.74352 78 64 78 C 56.25648 78 50 71.74352 50 64 C 50 56.25648 56.25648 50 64 50 z M 25 53 C 24.448 53 24 53.448 24 54 C 24 54.552 24.448 55 25 55 C 25.552 55 26 54.552 26 54 C 26 53.448 25.552 53 25 53 z M 25 57 C 24.448 57 24 57.448 24 58 C 24 58.552 24.448 59 25 59 C 25.552 59 26 58.552 26 58 C 26 57.448 25.552 57 25 57 z M 71.574219 57.509766 C 68.457594 61.250089 65.339505 64.990013 62.222656 68.730469 C 60.145973 66.95035 58.068525 65.170598 55.992188 63.390625 L 54.691406 64.908203 C 57.024513 66.908295 59.358513 68.908295 61.691406 70.908203 L 62.460938 71.568359 L 63.109375 70.789062 C 66.442312 66.789139 69.776312 62.789138 73.109375 58.789062 L 71.574219 57.509766 z"></path>
</svg>